<svg id="f837999b-f494-4803-afe2-1ffbfbe12322" data-name="Isometric" xmlns="http://www.w3.org/2000/svg" viewBox="0 0 12.79 21.29"><defs><style>.ef777e19-0f34-4b4c-a892-0083cc7c0ba7{fill:#5076ff;}.ba9e4a3d-0074-4fc0-b734-c7090cb08947{fill:#14d1ba;}.ee6701d6-6dea-466c-91a1-a8c4be89869d{fill:#815eba;}</style></defs><path class="ef777e19-0f34-4b4c-a892-0083cc7c0ba7" d="M5.54,5.47" transform="translate(-4.47 -0.21)"/><polygon class="ef777e19-0f34-4b4c-a892-0083cc7c0ba7" points="6.27 0 0 3.47 2.12 4.68 6.3 2.37 10.53 4.78 12.62 3.62 6.27 0"/><polygon class="ba9e4a3d-0074-4fc0-b734-c7090cb08947" points="10.53 4.78 10.59 9.51 8.47 8.3 8.44 5.94 6.31 4.72 6.3 2.37 10.53 4.78"/><path class="ba9e4a3d-0074-4fc0-b734-c7090cb08947" d="M14.59,6.55" transform="translate(-4.47 -0.21)"/><polygon class="ee6701d6-6dea-466c-91a1-a8c4be89869d" points="6.3 2.37 6.31 4.72 4.24 5.89 4.24 8.24 2.17 9.41 2.12 4.68 6.3 2.37"/><polygon class="ef777e19-0f34-4b4c-a892-0083cc7c0ba7" points="4.24 8.24 6.38 9.46 8.47 8.3 10.59 9.51 8.44 10.7 6.31 10.69 4.29 10.62 2.17 9.41 4.24 8.24"/><path class="ef777e19-0f34-4b4c-a892-0083cc7c0ba7" d="M6.64,9.62" transform="translate(-4.47 -0.21)"/><polygon class="ba9e4a3d-0074-4fc0-b734-c7090cb08947" points="2.17 9.41 2.2 11.78 4.32 12.98 8.53 13.03 8.44 10.7 4.29 10.62 2.17 9.41"/><polygon class="ee6701d6-6dea-466c-91a1-a8c4be89869d" points="8.53 13.03 10.59 11.89 12.79 8.29 12.62 3.62 10.53 4.78 10.59 9.51 8.44 10.7 8.53 13.03"/><polygon class="ee6701d6-6dea-466c-91a1-a8c4be89869d" points="2.2 11.78 4.32 12.98 4.32 15.37 2.26 16.51 2.2 11.78"/><polygon class="ef777e19-0f34-4b4c-a892-0083cc7c0ba7" points="4.32 15.37 6.47 16.56 8.56 15.4 10.67 16.61 6.49 18.92 2.26 16.51 4.32 15.37"/><polygon class="ee6701d6-6dea-466c-91a1-a8c4be89869d" points="10.59 11.89 10.67 16.61 6.49 18.92 6.52 21.29 12.79 17.82 12.73 13.08 10.59 11.89"/><polygon class="ba9e4a3d-0074-4fc0-b734-c7090cb08947" points="8.56 15.4 8.53 13.03 10.59 11.89 10.67 16.61 8.56 15.4"/><polygon class="ba9e4a3d-0074-4fc0-b734-c7090cb08947" points="0 3.47 0.17 17.66 6.52 21.29 6.49 18.92 2.26 16.51 2.12 4.68 0 3.47"/></svg>