<svg xmlns="http://www.w3.org/2000/svg" viewBox="0 0 60 70.8">
    <defs>
        <style>.cls-1{fill:#b9f7ff;}.cls-2,.cls-3{fill:none;stroke-miterlimit:10;}.cls-2{stroke:#18d9ff;}.cls-3{stroke:#fff;}.cls-4{font-size:43.85px;font-family:RoundedMplus1c-Thin, "Rounded Mplus 1c";font-weight:200;letter-spacing:-0.17em;}.cls-5{letter-spacing:-0.15em;}</style>
    </defs>
    <g id="rest">
        <rect class="cls-1" x="1.5" y="1.5" width="57.21" height="57.21" />
        <path class="cls-1" d="M58.2,2V58.2H2V2H58.2m1-1H1V59.2H59.2V1Z" />
        <line class="cls-2" x1="58.5" y1="1" x2="58.5" y2="59" />
        <line class="cls-2" x1="57.5" y1="1" x2="57.5" y2="59" />
        <line class="cls-3" x1="2.5" y1="1" x2="2.5" y2="59" />
        <line class="cls-3" x1="1.5" y1="1" x2="1.5" y2="59" />
        <path d="M58,1a1,1,0,0,1,1,1V58a1,1,0,0,1-1,1H2.05a1,1,0,0,1-1-1V2.05a1,1,0,0,1,1-1H58m0-1H2.05A2.05,2.05,0,0,0,0,2.05V58a2.05,2.05,0,0,0,2.05,2H58a2.05,2.05,0,0,0,2-2V2.05a2.05,2.05,0,0,0-2-2Z" />
    </g>
    <g id="text">
        <text class="cls-4" transform="translate(22.3 55.89) scale(0.82 1)">
            T
            <tspan class="cls-5" x="20.08" y="0">S</tspan>
        </text>
        <text />
    </g>
</svg>